<?xml version="1.0" encoding="utf-8"?>
<!-- Generator: Adobe Illustrator 26.3.1, SVG Export Plug-In . SVG Version: 6.00 Build 0)  -->
<svg version="1.1" id="Calque_1" xmlns="http://www.w3.org/2000/svg" xmlns:xlink="http://www.w3.org/1999/xlink" x="0px" y="0px"
	 viewBox="0 0 252 149" style="enable-background:new 0 0 252 149;" xml:space="preserve">
<style type="text/css">
	.st0{fill:#58AA3B;}
	.st1{fill:#39AAE2;}
</style>
<path class="st0" d="M118.3,130.81l22.75-38.59l14.75-23.27c2.14-2.86,5.74-4.9,9.36-5.42c4.65-0.61,7.66,0.21,11.54,2.5
	c1.52,1.99,3.03,4.17,4.49,6.53c-9.71-5.36-15.42-2.57-17.96-1.08l-1.7,1.53l-1.08,1.35l-21.11,35.5l-11.7,20.93h-6.1H118.3z"/>
<path class="st0" d="M208.28,98.39c-1.06,1.78-1.62,3.17-3.13,3.55c-2.39,0.39-3.2-2.06-3.78-2.97l-2.32-4.54
	c1.02,0.19,2.79,0.28,3.67-1.54l9.1-15.71l7.22-12.55l2.61-4.37l2.94-5.09l12.7-21.96v13.66L208.28,98.39z"/>
<path class="st1" d="M110.3,130.81l11.34-18.91l29.82-50.73c4-4.97,9.02-6.71,14.45-5.72c3.92,0.86,6.96,2.91,9.18,6.45
	c0.15,0.68-0.83-0.39-1.72-0.77c-5.97-3.1-14.28-2.87-18.77,2.93l-11,18.57l-28.64,48.17H110.3z"/>
<path class="st1" d="M130.94,130.85l27.07-45.07c0,0,8.74-19.27,24.94-8.13c0.89,0.61,0.77,0.75,1.39,1.4
	c1.28,1.34,1.87,1.95,4.53,6.03c0.37,0.57,2.57,4.07,4.25,7.46c1.76,3.55,5.13,8.71,7.01,12.07c0.72,1.29,2.25,3.48,2.25,3.48
	s1.77,2.16,3.75,0c0.91-0.99,31.15-52.46,31.15-52.46v46.4l-16.89,29.03h-31.51L175,106.85c0,0-2.09-3.49-4.38,0
	c-1.35,2.06-13.81,24.05-13.81,24.05L130.94,130.85z"/>
<path class="st1" d="M202.48,87.04c-0.66,1.26-1.16,2.55-2.92,2.81c-2.74,0.09-2.88-3.07-4.06-4.72c0.74,0.18,1.71,0.53,2.71,0.29
	l0.27-0.13l0.18-0.14l0.68-0.77l9.4-16.13l7.54-13.08l20.99-37.49v7.87l-16.76,29.62L202.48,87.04z"/>
<polygon class="st0" points="150.75,55.18 84.97,55.18 84.97,130.81 105.18,130.81 118.18,109.21 106.64,109.23 106.64,99.87 
	123.81,99.87 134.76,81.5 106.31,81.54 106.31,72.54 139.97,72.54 "/>
<path class="st0" d="M80.91,130.81c0,0-11.57,0-27.07,0c-15.51,0-35.08-16.93-35.08-37.81c0-20.88,19.58-37.81,35.08-37.81
	c7.73,0,27.07,0,27.07,0v21.86l-22.66,0.15c0,0-14.92,1.51-15,14.85c-0.08,14,14.58,16.16,14.58,16.16l23.07-0.16V130.81z"/>
</svg>
